<?xml version="1.0" encoding="UTF-8" standalone="no"?>
<!-- Generator: Adobe Illustrator 23.0.1, SVG Export Plug-In . SVG Version: 6.00 Build 0)  -->

<svg
   xmlns:dc="http://purl.org/dc/elements/1.1/"
   xmlns:cc="http://creativecommons.org/ns#"
   xmlns:rdf="http://www.w3.org/1999/02/22-rdf-syntax-ns#"
   xmlns:svg="http://www.w3.org/2000/svg"
   xmlns="http://www.w3.org/2000/svg"
   xmlns:sodipodi="http://sodipodi.sourceforge.net/DTD/sodipodi-0.dtd"
   xmlns:inkscape="http://www.inkscape.org/namespaces/inkscape"
   version="1.1"
   id="Layer_1"
   x="0px"
   y="0px"
   viewBox="0 0 165.69078 33.956249"
   xml:space="preserve"
   sodipodi:docname="logo-bezrealitky.svg"
   width="165.69078"
   height="33.956249"
   inkscape:version="0.92.3 (2405546, 2018-03-11)"><metadata
   id="metadata37"><rdf:RDF><cc:Work
       rdf:about=""><dc:format>image/svg+xml</dc:format><dc:type
         rdf:resource="http://purl.org/dc/dcmitype/StillImage" /><dc:title></dc:title></cc:Work></rdf:RDF></metadata><defs
   id="defs35" /><sodipodi:namedview
   pagecolor="#ffffff"
   bordercolor="#666666"
   borderopacity="1"
   objecttolerance="10"
   gridtolerance="10"
   guidetolerance="10"
   inkscape:pageopacity="0"
   inkscape:pageshadow="2"
   inkscape:window-width="1187"
   inkscape:window-height="701"
   id="namedview33"
   showgrid="false"
   fit-margin-top="0"
   fit-margin-left="0"
   fit-margin-right="0"
   fit-margin-bottom="0"
   inkscape:zoom="2.019802"
   inkscape:cx="64.67216"
   inkscape:cy="16.5"
   inkscape:window-x="649"
   inkscape:window-y="370"
   inkscape:window-maximized="0"
   inkscape:current-layer="Layer_1" />
<style
   type="text/css"
   id="style2">
	.st0{fill:#91C14E;}
	.st1{fill:#1D1D1B;}
	.st2{fill:#FFFFFF;}
</style>
<path
   class="st0"
   d="m 24.290787,5.7562479 c -4,-5.89999996 -12.2,-7.5 -18.2999995,-3.7 -6.1,3.8 -7.8,11.6000001 -3.9,17.5000001 0,0 6.3,10.7 25.4999995,14.4 v 0 c 4.3,-18.3 -3.3,-28.2000001 -3.3,-28.2000001 z"
   id="path4"
   inkscape:connector-curvature="0"
   style="fill:#91c14e" />
<path
   class="st0"
   d="m 36.290787,7.7562479 c -0.1,-0.5 0.2,-1 0.6,-1.4 0.5,-0.3 1,-0.4 1.5,-0.4 0.4,0 0.8,0 1.2,0.1 l 0.6,0.2 v 6.0000001 c 0.4,-0.4 0.9,-0.6 1.4,-0.9 0.7,-0.3 1.5,-0.5 2.3,-0.4 1.6,0 3.2,0.6 4.3,1.8 0.6,0.6 1,1.3 1.3,2 0.3,0.8 0.5,1.7 0.5,2.6 0,0.9 -0.2,1.8 -0.5,2.6 -0.3,0.8 -0.8,1.4 -1.4,2 -0.6,0.6 -1.4,1 -2.2,1.3 -0.9,0.3 -1.8,0.5 -2.7,0.5 -1.1,0.2 -2.2,0 -3.2,-0.3 -1,-0.4 -1.8,-1 -2.4,-1.8 -0.4,-0.6 -0.7,-1.2 -0.9,-1.9 -0.2,-0.9 -0.3,-1.8 -0.3,-2.7 z m 6.9,12.7000001 c 0.8,0 1.5,-0.3 2.1,-0.8 0.6,-0.6 0.8,-1.3 0.8,-2.1 0,-0.8 -0.3,-1.5 -0.8,-2.1 -0.5,-0.6 -1.3,-0.9 -2.1,-0.8 -0.4,0 -0.8,0.1 -1.1,0.2 -0.3,0.1 -0.7,0.4 -0.9,0.6 -0.3,0.3 -0.5,0.6 -0.6,0.9 -0.1,0.4 -0.2,0.8 -0.2,1.2 0,0.8 0.3,1.5 0.8,2.1 0.5,0.5 1.2,0.8 2,0.8 z"
   id="path6"
   inkscape:connector-curvature="0"
   style="fill:#91c14e" />
<path
   class="st0"
   d="m 56.090787,19.156248 c 0,0.2 0.1,0.4 0.3,0.6 0.2,0.2 0.4,0.4 0.6,0.5 0.3,0.2 0.6,0.3 1,0.4 0.5,0.1 1,0.1 1.4,0.1 0.4,0 0.8,0 1.2,-0.1 0.4,-0.1 0.7,-0.2 1,-0.2 0.2,-0.1 0.5,-0.1 0.7,-0.2 0.1,0 0.2,-0.1 0.3,-0.2 l 1.4,2.7 c -0.1,0.1 -0.4,0.2 -0.7,0.3 -0.4,0.2 -0.8,0.3 -1.2,0.4 -1.1,0.4 -2.3,0.5 -3.5,0.5 -0.9,0 -1.8,-0.1 -2.6,-0.4 -1.6,-0.6 -2.9,-1.7 -3.6,-3.3 -0.4,-0.9 -0.5,-1.8 -0.5,-2.7 0,-0.9 0.2,-1.8 0.5,-2.6 0.3,-0.8 0.8,-1.4 1.4,-2 0.6,-0.6 1.4,-1 2.2,-1.3 0.9,-0.3 1.8,-0.5 2.7,-0.5 0.8,0 1.6,0.1 2.4,0.4 0.7,0.2 1.3,0.5 1.8,0.9 0.5,0.4 0.8,0.8 1.1,1.4 0.2,0.5 0.4,1 0.4,1.6 0,0.5 -0.1,1.1 -0.3,1.5 -0.2,0.5 -0.7,0.9 -1.2,1.2 -0.7,0.4 -1.5,0.6 -2.3,0.8 -1.2,0.2 -2.4,0.3 -3.6,0.3 z m -0.2,-2.4 c 0.9,0 1.7,0 2.6,-0.1 0.5,0 0.9,-0.1 1.4,-0.3 0.2,-0.1 0.4,-0.2 0.5,-0.4 0.1,-0.2 0.1,-0.3 0.1,-0.5 0,-0.3 -0.2,-0.7 -0.5,-0.9 -0.4,-0.3 -0.9,-0.4 -1.4,-0.4 -0.4,0 -0.8,0.1 -1.2,0.2 -0.3,0.1 -0.6,0.3 -0.8,0.6 -0.2,0.2 -0.4,0.5 -0.5,0.8 -0.1,0.3 -0.2,0.6 -0.2,1 z"
   id="path8"
   inkscape:connector-curvature="0"
   style="fill:#91c14e" />
<path
   class="st0"
   d="m 65.390787,20.656248 1.8,-1.5 2,-1.7 1.8,-1.5 1.1,-1 h -4.6 c -0.6,0.1 -1.1,-0.1 -1.6,-0.4 -0.3,-0.3 -0.5,-0.8 -0.5,-1.2 0,-0.4 0.1,-0.8 0.2,-1.2 0.1,-0.2 0.2,-0.5 0.3,-0.7 h 9.9 c 0.5,0 1,0.1 1.4,0.5 0.4,0.4 0.6,0.9 0.6,1.4 0,0.4 -0.1,0.8 -0.3,1.1 -0.2,0.4 -0.6,0.7 -0.9,1 l -0.6,0.5 -1,0.9 -1.2,1 -1.2,1.1 -1,0.9 -0.8,0.6 h 7 v 3.2 h -12.4 z"
   id="path10"
   inkscape:connector-curvature="0"
   style="fill:#91c14e" />
<path
   class="st1"
   d="m 79.990787,15.956248 c -0.1,-1.3 0.4,-2.5 1.4,-3.4 1.1,-0.9 2.5,-1.3 3.9,-1.2 0.9,0 1.7,0.1 2.5,0.4 0.6,0.2 1,0.7 1,1.3 0,0.3 -0.1,0.6 -0.2,0.8 -0.1,0.2 -0.2,0.3 -0.4,0.5 -0.3,-0.1 -0.7,-0.3 -1,-0.4 -0.5,-0.1 -0.9,-0.2 -1.4,-0.2 -1.9,0 -2.9,1 -2.9,3 v 6.9 h -2.9 z"
   id="path12"
   inkscape:connector-curvature="0"
   style="fill:#1d1d1b" />
<path
   class="st1"
   d="m 101.19079,22.756248 -0.6,0.3 c -0.3,0.2 -0.700003,0.3 -1.000003,0.4 -0.5,0.1 -1,0.2 -1.5,0.3 -0.6,0.1 -1.2,0.1 -1.8,0.1 -0.9,0 -1.8,-0.1 -2.6,-0.4 -0.8,-0.3 -1.5,-0.7 -2.1,-1.2 -0.6,-0.5 -1.1,-1.2 -1.5,-2 -0.4,-0.8 -0.5,-1.7 -0.5,-2.7 0,-0.9 0.2,-1.8 0.5,-2.6 0.3,-0.8 0.8,-1.4 1.4,-2 0.6,-0.6 1.3,-1 2.1,-1.3 0.9,-0.3 1.8,-0.5 2.7,-0.5 0.8,0 1.5,0.1 2.3,0.3 0.6,0.2 1.2,0.5 1.700003,0.9 0.9,0.7 1.4,1.7 1.4,2.8 0,0.5 -0.1,1 -0.3,1.5 -0.3,0.5 -0.7,0.9 -1.1,1.2 -0.700003,0.4 -1.400003,0.6 -2.200003,0.8 -1.2,0.2 -2.3,0.3 -3.5,0.3 h -0.9 -0.9 c 0.1,0.8 0.6,1.5 1.2,2 0.9,0.6 1.9,0.8 3,0.8 0.4,0 0.8,0 1.2,-0.1 0.3,-0.1 0.7,-0.1 1,-0.3 0.3,-0.1 0.5,-0.2 0.8,-0.3 l 0.500003,-0.2 z m -8.700003,-5.6 h 1 1 c 0.7,0 1.5,0 2.2,-0.2 0.5,-0.1 0.9,-0.2 1.3,-0.4 0.3,-0.1 0.5,-0.3 0.6,-0.6 0.1,-0.2 0.1,-0.5 0.1,-0.7 0,-0.6 -0.3,-1.1 -0.8,-1.4 -0.6,-0.3 -1.2,-0.5 -1.9,-0.5 -0.6,0 -1.1,0.1 -1.6,0.3 -0.4,0.2 -0.8,0.5 -1.2,0.8 -0.3,0.3 -0.6,0.7 -0.7,1.2 0.1,0.5 0,1 0,1.5 z"
   id="path14"
   inkscape:connector-curvature="0"
   style="fill:#1d1d1b" />
<path
   class="st1"
   d="m 115.09079,23.656248 -0.8,0.1 -1.3,0.1 -1.6,0.1 c -0.6,0 -1.2,0 -1.9,0 -1.1,0 -2.1,-0.1 -3.1,-0.3 -0.7,-0.2 -1.4,-0.5 -1.9,-0.9 -0.4,-0.3 -0.8,-0.7 -1,-1.2 -0.2,-0.5 -0.3,-0.9 -0.3,-1.4 0,-0.6 0.1,-1.2 0.3,-1.7 0.2,-0.5 0.6,-0.9 1,-1.2 0.6,-0.4 1.2,-0.6 1.9,-0.8 0.9,-0.2 1.8,-0.3 2.8,-0.2 0.6,0 1.2,0 1.8,0.1 l 1.3,0.1 c 0,-0.5 -0.1,-0.9 -0.3,-1.4 -0.2,-0.3 -0.4,-0.6 -0.8,-0.9 -0.4,-0.2 -0.8,-0.4 -1.2,-0.4 -0.5,-0.1 -1,-0.1 -1.5,-0.1 -0.8,0 -1.5,0.1 -2.3,0.3 -0.4,0.1 -0.8,0.3 -1.1,0.5 -0.2,-0.1 -0.3,-0.3 -0.4,-0.5 -0.2,-0.2 -0.3,-0.5 -0.3,-0.8 0,-0.2 0.1,-0.5 0.2,-0.7 0.2,-0.2 0.4,-0.4 0.7,-0.6 0.4,-0.2 0.8,-0.3 1.3,-0.4 0.7,-0.1 1.3,-0.2 2,-0.1 0.9,0 1.8,0.1 2.7,0.3 0.7,0.2 1.5,0.5 2.1,0.9 0.6,0.4 1.1,0.9 1.4,1.6 0.3,0.7 0.5,1.5 0.5,2.4 v 7.2 z m -2.9,-5.3 -0.9,-0.1 c -0.7,-0.1 -1.4,-0.1 -2.1,-0.1 -0.9,-0.1 -1.7,0.1 -2.5,0.5 -0.5,0.3 -0.8,0.9 -0.8,1.5 0,0.3 0.1,0.5 0.2,0.8 0.1,0.3 0.3,0.5 0.6,0.6 0.3,0.2 0.7,0.3 1,0.4 0.6,0.1 1.1,0.1 1.7,0.1 0.6,0 1.2,0 1.8,-0.1 0.4,-0.1 0.7,-0.1 0.9,-0.1 z"
   id="path16"
   inkscape:connector-curvature="0"
   style="fill:#1d1d1b" />
<path
   class="st1"
   d="m 118.09079,7.3562479 c 0,-0.4 0.1,-0.7 0.4,-1 0.3,-0.2 0.7,-0.3 1.1,-0.3 0.3,0 0.6,0 0.8,0.1 l 0.5,0.2 V 23.756248 h -2.8 z"
   id="path18"
   inkscape:connector-curvature="0"
   style="fill:#1d1d1b" />
<path
   class="st1"
   d="m 125.49079,6.3562479 c 0.9,0 1.7,0.7 1.7,1.6 0,0.9 -0.8,1.6 -1.7,1.6 -0.9,0 -1.7,-0.7 -1.7,-1.6 0,-0.4 0.2,-0.8 0.5,-1.1 0.3,-0.4 0.7,-0.5 1.2,-0.5 z m -1.4,6.6000001 c 0,-0.4 0.1,-0.7 0.4,-1 0.3,-0.2 0.7,-0.3 1.1,-0.3 0.3,0 0.6,0 0.8,0.1 l 0.5,0.1 v 11.8 h -2.8 z"
   id="path20"
   inkscape:connector-curvature="0"
   style="fill:#1d1d1b" />
<path
   class="st1"
   d="m 129.99079,9.5562479 c 0,-0.4 0.1,-0.7 0.4,-1 0.3,-0.2 0.7,-0.3 1,-0.3 0.3,0 0.6,0 0.8,0.1 l 0.6,0.2 v 3.1000001 h 3.6 c 0.4,0 0.8,0.1 1.2,0.3 0.2,0.3 0.4,0.6 0.3,0.9 0,0.3 0,0.5 -0.1,0.8 -0.1,0.2 -0.1,0.3 -0.2,0.5 h -4.8 v 5.3 c 0,0.3 0.1,0.7 0.2,1 0.1,0.2 0.3,0.5 0.5,0.6 0.2,0.2 0.5,0.3 0.7,0.3 0.3,0.1 0.6,0.1 0.9,0.1 0.5,0 0.9,-0.1 1.3,-0.2 0.3,-0.1 0.6,-0.2 0.9,-0.4 l 1.1,1.8 c -0.1,0.1 -0.3,0.2 -0.6,0.4 -0.3,0.2 -0.6,0.3 -0.9,0.4 -0.4,0.1 -0.8,0.2 -1.2,0.3 -0.5,0.1 -0.9,0.1 -1.4,0.1 -1.2,0.1 -2.4,-0.3 -3.3,-1.1 -0.8,-0.8 -1.2,-1.8 -1.1,-2.9 z"
   id="path22"
   inkscape:connector-curvature="0"
   style="fill:#1d1d1b" />
<path
   class="st1"
   d="m 139.89079,7.3562479 c 0,-0.4 0.1,-0.7 0.4,-1 0.3,-0.2 0.7,-0.3 1.1,-0.3 0.3,0 0.6,0 0.8,0.1 l 0.5,0.2 v 9.8000001 l 0.9,-0.6 1.3,-0.9 1.5,-1 1.5,-1 c 0.3,-0.2 0.7,-0.4 1,-0.6 0.4,-0.1 0.8,-0.2 1.2,-0.2 0.4,0 0.8,0.1 1.1,0.3 0.2,0.2 0.4,0.3 0.6,0.6 -0.3,0.3 -0.8,0.7 -1.4,1.1 l -1.9,1.3 -1.8,1.2 -1.2,0.8 c 1.4,1 2.7,2.1 3.9,3.3 1.1,1 2,2.2 2.9,3.3 h -3.5 c -0.4,-0.4 -0.8,-0.9 -1.3,-1.4 -0.5,-0.5 -1,-1 -1.5,-1.4 -0.5,-0.4 -1.1,-0.9 -1.6,-1.4 -0.5,-0.4 -1.1,-0.8 -1.6,-1.2 v 5.4 h -2.8 z"
   id="path24"
   inkscape:connector-curvature="0"
   style="fill:#1d1d1b" />
<path
   class="st1"
   d="m 153.79079,12.956248 c 0,-0.4 0.1,-0.7 0.4,-1 0.3,-0.2 0.7,-0.3 1,-0.3 0.3,0 0.6,0 0.8,0.1 l 0.5,0.1 v 6.4 c 0,0.8 0.2,1.6 0.8,2.2 0.6,0.6 1.5,0.9 2.4,0.8 0.9,0 1.7,-0.3 2.4,-0.8 0.6,-0.7 0.9,-1.6 0.9,-2.5 v -5 c 0,-0.4 0.1,-0.7 0.4,-1 0.3,-0.2 0.7,-0.3 1,-0.3 0.3,0 0.6,0 0.8,0.1 l 0.5,0.2 v 10.5 c 0,1 -0.1,1.9 -0.5,2.9 -0.5,1.5 -1.8,2.6 -3.3,3 -0.9,0.2 -1.8,0.4 -2.7,0.3 -0.6,0 -1.2,0 -1.9,-0.1 -0.6,-0.1 -1.1,-0.2 -1.5,-0.2 -0.4,-0.1 -0.8,-0.2 -1,-0.3 l -0.6,-0.2 c 0.1,-0.3 0.3,-0.7 0.4,-1 l 0.3,-1 0.5,0.2 c 0.3,0.1 0.6,0.2 0.9,0.2 0.3,0.1 0.7,0.1 1.2,0.2 0.5,0 0.9,0.1 1.4,0.1 0.6,0 1.2,-0.1 1.7,-0.2 0.5,-0.1 0.9,-0.4 1.3,-0.7 0.4,-0.4 0.7,-0.8 0.8,-1.3 0.2,-0.7 0.3,-1.4 0.3,-2.1 -0.4,0.5 -0.9,0.9 -1.6,1.1 -0.7,0.3 -1.5,0.4 -2.3,0.4 -0.7,0 -1.5,-0.1 -2.2,-0.3 -0.6,-0.2 -1.2,-0.5 -1.7,-0.9 -0.5,-0.4 -0.9,-0.9 -1.1,-1.5 -0.3,-0.7 -0.4,-1.4 -0.4,-2.1 z"
   id="path26"
   inkscape:connector-curvature="0"
   style="fill:#1d1d1b" />
<path
   class="st2"
   d="m 17.490787,12.056248 c -0.2,0.7 -0.5,1.4 -1,2 l 4.9,7.7 -0.6,2.2 -3.2,-0.8 0.3,-1 -1.6,-0.4 0.4,-1.7 -1.9,-0.5 0.5,-1.8 -1.8,-0.4 0.4,-1.5 -0.3,-0.3 c -2.8,0.5 -5.3999995,-1.3 -5.8999995,-4 -0.5,-2.7000001 1.4,-5.2000001 4.1999995,-5.7000001 2.8,-0.5 5.4,1.3 5.9,4 -0.1,0.8000001 -0.1,1.5000001 -0.3,2.2000001 z"
   id="path28"
   inkscape:connector-curvature="0"
   style="fill:#ffffff" />
<ellipse
   class="st0"
   cx="11.790787"
   cy="10.056249"
   rx="2"
   ry="1.9"
   id="ellipse30"
   style="fill:#91c14e" />
</svg>
